<?xml version="1.0" encoding="utf-8"?>
<!-- Generator: Adobe Illustrator 28.0.0, SVG Export Plug-In . SVG Version: 6.00 Build 0)  -->
<svg version="1.1" id="Layer_1" xmlns="http://www.w3.org/2000/svg" xmlns:xlink="http://www.w3.org/1999/xlink" x="0px" y="0px"
	 viewBox="0 0 247.1 248.44" style="enable-background:new 0 0 247.1 248.44;" xml:space="preserve">
<style type="text/css">
	.st0{fill:#FFFFFF;}
</style>
<g>
	<path class="st0" d="M142.55,49.08c-1.05,2.45-2.55,4.65-4.4,6.52c-3.73,3.76-8.9,6.07-14.6,6.07c-5.7,0-10.84-2.31-14.58-6.05
		c-1.87-1.87-3.38-4.09-4.42-6.54C88.27,53.14,74,62.32,63.56,74.8c-11.33,13.55-18.15,31.02-18.15,50.09
		c0,5.59,0.58,11.01,1.66,16.18c0.14,0.67,0.3,1.33,0.46,1.99c2.23-0.59,4.57-0.91,6.99-0.91c15.06,0,27.26,12.21,27.26,27.26
		c0,6.53-2.3,12.52-6.13,17.21c5.34,4.15,11.21,7.63,17.51,10.29c9.31,3.93,19.58,6.1,30.38,6.1c19.07,0,36.54-6.83,50.09-18.15
		c10.53-8.81,18.7-20.35,23.44-33.53c-11.21-3.39-19.37-13.79-19.37-26.1s8.28-22.85,19.6-26.16c-3.91-11.2-10.31-21.24-18.52-29.45
		c-9.83-9.85-22.29-17.08-36.25-20.56L142.55,49.08z M154.81,156.14c-8,8-19.05,12.94-31.25,12.94s-23.26-4.94-31.25-12.94
		c-8-8-12.94-19.05-12.94-31.25s4.94-23.25,12.94-31.25s19.05-12.94,31.25-12.94s23.25,4.94,31.25,12.94s12.94,19.05,12.94,31.25
		S162.81,148.15,154.81,156.14z"/>
	<path class="st0" d="M214.17,209.03c-3.82,0-7.28,1.55-9.78,4.05s-4.05,5.97-4.05,9.78c0,3.59,1.43,7.32,4.05,9.8
		c2.5,2.5,5.97,4.05,9.78,4.05s7.31-1.54,9.81-4.04c2.49-2.5,4.04-5.98,4.04-9.81s-1.55-7.28-4.05-9.78
		C221.48,210.57,218.02,209.03,214.17,209.03L214.17,209.03z"/>
	<path class="st0" d="M123.56,50.18c2.53,0,4.82-1.03,6.49-2.68c1.91-1.9,2.58-4,2.68-6.49c0-2.42-0.93-4.62-2.56-6.38
		c-1.78-1.77-4.08-2.8-6.61-2.8s-4.62,0.93-6.38,2.56c-1.77,1.78-2.8,4.08-2.8,6.61s1.03,4.84,2.68,6.5
		C118.72,49.15,121.01,50.18,123.56,50.18L123.56,50.18z"/>
	<path class="st0" d="M123.56,92.17c-9.04,0-17.22,3.66-23.14,9.58s-9.58,14.1-9.58,23.14s3.66,17.22,9.58,23.14
		s14.11,9.58,23.14,9.58s17.22-3.66,23.14-9.58c5.92-5.92,9.58-14.11,9.58-23.14s-3.66-17.21-9.58-23.14
		C140.78,95.83,132.6,92.17,123.56,92.17z"/>
	<path class="st0" d="M218.24,46.04c2.38,0,4.85-0.95,6.49-2.69c1.66-1.66,2.69-3.95,2.69-6.48s-1.02-4.84-2.68-6.5
		c-1.66-1.65-3.96-2.68-6.5-2.68s-4.83,1.03-6.48,2.69c-1.66,1.65-2.69,3.95-2.69,6.49s1.03,4.83,2.69,6.48
		C213.4,45.01,215.7,46.04,218.24,46.04z"/>
	<path class="st0" d="M240.97,86.37c-3.57-10.88-8.61-21.1-14.88-30.42c-2.42,1-5.08,1.56-7.87,1.56c-5.67,0-10.84-2.31-14.58-6.06
		c-3.75-3.71-6.06-8.88-6.06-14.58c0-3.31,0.78-6.45,2.18-9.22c-10.02-7.87-21.29-14.22-33.47-18.71c-13.3-4.9-27.7-7.58-42.75-7.58
		c-13.47,0-26.43,2.15-38.52,6.11c-7.11,2.33-13.94,5.3-20.42,8.83c1.29,3.64,2,7.56,2,11.64c0,19.25-15.6,34.85-34.85,34.85
		c-4.76,0-9.3-0.96-13.43-2.69c-4.27,6.92-7.88,14.3-10.74,22.05C2.68,95.45,0,109.85,0,124.9c0,34.12,13.83,65.01,36.18,87.37
		c22.35,22.35,53.25,36.19,87.37,36.19c13.47,0,26.42-2.15,38.52-6.12c10.88-3.57,21.1-8.61,30.42-14.88l0,0
		c-1-2.43-1.56-5.09-1.56-7.87c0-5.7,2.31-10.86,6.05-14.6c3.73-3.73,8.9-6.05,14.6-6.05c3.31,0,6.45,0.79,9.22,2.18
		c7.87-10.02,14.22-21.3,18.71-33.48c4.9-13.3,7.59-27.71,7.59-42.75C247.1,111.42,244.95,98.47,240.97,86.37L240.97,86.37z
		 M208.91,152.23c-5.24,16.37-15.04,30.68-27.91,41.44c-15.56,13.01-35.6,20.84-57.43,20.84c-12.31,0-24.08-2.51-34.82-7.04
		c-8.1-3.42-15.58-8.02-22.26-13.54c-3.61,1.77-7.67,2.76-11.96,2.76c-15.06,0-27.26-12.21-27.26-27.26
		c0-8.44,3.83-15.98,9.86-20.98c-0.45-1.66-0.87-3.34-1.22-5.04c-1.27-6.02-1.94-12.21-1.94-18.52c0-21.84,7.83-41.87,20.84-57.43
		c12.26-14.67,29.13-25.36,48.4-29.83c0.72-4.34,2.8-8.22,5.77-11.19l0.38-0.35c3.71-3.53,8.72-5.71,14.22-5.71
		c5.5,0,10.86,2.31,14.6,6.05l0.35,0.38c2.78,2.92,4.73,6.66,5.42,10.81c16.55,3.85,31.35,12.3,42.99,23.94
		c10.16,10.13,17.88,22.71,22.25,36.76c13.07,2.01,23.08,13.31,23.08,26.94s-10.14,25.07-23.33,26.98L208.91,152.23z"/>
	<circle class="st0" cx="31.06" cy="25.18" r="25.19"/>
	<circle class="st0" cx="205.32" cy="124.91" r="17.25"/>
	<circle class="st0" cx="54.87" cy="169.08" r="17.25"/>
</g>
</svg>
