<?xml version="1.0" encoding="utf-8"?>
<!-- Generator: Adobe Illustrator 28.0.0, SVG Export Plug-In . SVG Version: 6.00 Build 0)  -->
<svg version="1.1" id="Layer_1" xmlns="http://www.w3.org/2000/svg" xmlns:xlink="http://www.w3.org/1999/xlink" x="0px" y="0px"
	 viewBox="0 0 821.36 154.37" style="enable-background:new 0 0 821.36 154.37;" xml:space="preserve">
<style type="text/css">
	.st0{fill:#FFFFFF;}
</style>
<g>
	<path class="st0" d="M187.14,148.49V9.9h70.28c28.31,0,45.54,18.81,45.54,43.56c0,27.92-19.4,44.94-45.54,44.94h-46.53v50.09
		h-23.76H187.14z M210.9,77.02h45.34c14.85,0,22.57-11.09,22.57-23.56s-8.91-22.17-22.57-22.17H210.9V77.02z"/>
	<path class="st0" d="M310.28,148.49V0h23.36v148.49H310.28L310.28,148.49z"/>
	<path class="st0" d="M340.77,119.38c0.2-24.55,24.55-29.7,44.94-32.07c15.84-1.78,27.52-2.38,27.72-10.69
		c-0.2-10.3-8.12-17.03-21.58-17.03S368.09,67.11,366.71,78h-23.56c2.18-22.17,21.98-37.62,49.1-37.62s43.95,15.44,43.95,37.81
		v47.52c0,2.97,1.58,4.55,5.15,4.55h5.74v18.21H436c-10.69,0-17.22-4.36-19.01-12.28c-0.4-0.99-0.79-2.38-0.99-3.56
		c-6.14,11.29-17.62,18.02-35.44,18.02C356.41,150.65,340.57,138.97,340.77,119.38L340.77,119.38z M413.43,109.08V94.43
		c-3.96,6.14-14.06,7.52-25.14,8.91c-13.07,1.58-23.96,3.37-23.96,14.45c0,9.11,7.33,14.45,20.99,14.45
		C401.36,132.24,413.43,123.13,413.43,109.08z"/>
	<path class="st0" d="M454.52,148.49V43.56h18.81L475.31,59c6.53-10.89,19.8-18.61,35.44-18.61c22.37,0,37.02,15.05,37.02,38.61
		v69.49h-23.36v-68.3c0-11.68-7.72-19.4-20.79-19.4c-15.24,0-25.54,10.49-25.74,24.15v63.55H454.52L454.52,148.49z"/>
	<path class="st0" d="M556.48,113.05V43.56h23.36v68.5c0,11.88,8.32,18.81,20.79,18.81c16.04,0,25.54-10.49,25.74-23.96V43.56h23.36
		v104.93h-18.81l-1.78-15.24c-6.14,11.29-18.61,18.21-33.26,18.21C570.93,151.46,556.48,135.82,556.48,113.05L556.48,113.05z"/>
	<path class="st0" d="M661.6,148.49V43.56h18.81l1.78,14.65c6.53-10.29,19.4-17.82,35.04-17.82s26.53,7.52,32.07,19.6
		c5.94-11.09,19.4-19.6,36.03-19.6c21.98,0,36.03,15.64,36.03,38.21v69.89H797.8v-68.7c0-11.68-7.13-19.2-18.41-19.2
		c-16.04,0-26.13,10.49-26.33,24.35v63.55H729.7v-68.7c0-11.68-7.13-19.2-18.41-19.2c-16.04,0-26.13,10.49-26.33,24.35v63.55
		L661.6,148.49L661.6,148.49z"/>
	<path class="st0" d="M88.01,31.29c-0.65,1.52-1.57,2.87-2.72,4.02c-2.3,2.32-5.49,3.75-9.01,3.75s-6.69-1.43-9-3.73
		c-1.15-1.15-2.08-2.52-2.73-4.04c-10.05,2.51-18.86,8.18-25.3,15.88c-6.99,8.36-11.21,19.15-11.21,30.92c0,3.45,0.36,6.8,1.03,9.99
		c0.09,0.41,0.18,0.82,0.28,1.23c1.38-0.36,2.82-0.56,4.31-0.56c9.29,0,16.83,7.53,16.83,16.83c0,4.03-1.42,7.73-3.78,10.63
		c3.29,2.56,6.92,4.71,10.81,6.35c5.75,2.43,12.09,3.77,18.76,3.77c11.77,0,22.55-4.21,30.92-11.21c6.5-5.44,11.55-12.56,14.47-20.7
		c-6.92-2.09-11.96-8.51-11.96-16.11s5.11-14.11,12.1-16.15c-2.42-6.91-6.36-13.11-11.43-18.18C104.31,37.9,96.62,33.43,88,31.29
		L88.01,31.29z M95.58,97.38c-4.94,4.94-11.76,7.99-19.29,7.99S61.93,102.32,57,97.38c-4.94-4.94-7.99-11.76-7.99-19.29
		S52.06,63.74,57,58.8s11.76-7.99,19.29-7.99s14.35,3.05,19.29,7.99s7.99,11.76,7.99,19.29S100.52,92.45,95.58,97.38L95.58,97.38z"
		/>
	<path class="st0" d="M132.22,130.03c-2.36,0-4.5,0.96-6.04,2.5c-1.54,1.54-2.5,3.68-2.5,6.04c0,2.22,0.88,4.52,2.5,6.05
		c1.54,1.54,3.68,2.5,6.04,2.5c2.36,0,4.51-0.95,6.05-2.49c1.53-1.54,2.49-3.69,2.49-6.05c0-2.36-0.96-4.5-2.5-6.04
		c-1.53-1.55-3.68-2.5-6.05-2.5L132.22,130.03z"/>
	<path class="st0" d="M76.28,31.97c1.56,0,2.98-0.63,4-1.66c1.18-1.17,1.59-2.47,1.65-4c0-1.49-0.57-2.85-1.58-3.94
		c-1.1-1.09-2.52-1.73-4.08-1.73s-2.85,0.57-3.94,1.58c-1.09,1.1-1.73,2.52-1.73,4.08s0.64,2.99,1.65,4.01
		c1.02,1.02,2.44,1.65,4.01,1.65L76.28,31.97z"/>
	<path class="st0" d="M76.28,57.89c-5.58,0-10.63,2.26-14.28,5.91c-3.66,3.66-5.91,8.7-5.91,14.28S58.35,88.71,62,92.36
		c3.66,3.66,8.71,5.91,14.28,5.91s10.63-2.26,14.28-5.91c3.66-3.66,5.91-8.71,5.91-14.28s-2.26-10.63-5.91-14.28
		C86.9,60.14,81.86,57.89,76.28,57.89z"/>
	<path class="st0" d="M134.73,29.42c1.47,0,2.99-0.58,4.01-1.66c1.02-1.02,1.66-2.44,1.66-4s-0.63-2.99-1.65-4.01
		c-1.02-1.02-2.45-1.65-4.01-1.65s-2.98,0.64-4,1.66c-1.03,1.02-1.66,2.44-1.66,4.01s0.64,2.98,1.66,4c1.01,1.03,2.43,1.66,4,1.66
		L134.73,29.42z"/>
	<path class="st0" d="M148.76,54.31c-2.2-6.72-5.31-13.03-9.19-18.78c-1.49,0.62-3.14,0.97-4.86,0.97c-3.5,0-6.69-1.43-9-3.74
		c-2.31-2.29-3.74-5.48-3.74-9c0-2.04,0.48-3.98,1.35-5.69c-6.19-4.86-13.14-8.78-20.66-11.55c-8.21-3.03-17.1-4.68-26.39-4.68
		c-8.31,0-16.32,1.33-23.78,3.77c-4.39,1.44-8.6,3.27-12.6,5.45c0.8,2.25,1.23,4.66,1.23,7.18c0,11.88-9.63,21.52-21.52,21.52
		c-2.94,0-5.74-0.59-8.29-1.66c-2.64,4.27-4.87,8.83-6.63,13.61C1.65,59.92,0,68.81,0,78.1c0,21.06,8.54,40.13,22.34,53.93
		c13.8,13.8,32.87,22.34,53.93,22.34c8.31,0,16.31-1.33,23.78-3.78c6.72-2.2,13.03-5.31,18.78-9.19l0,0
		c-0.62-1.5-0.97-3.14-0.97-4.86c0-3.52,1.43-6.71,3.73-9.01c2.3-2.3,5.5-3.73,9.01-3.73c2.04,0,3.98,0.49,5.69,1.35
		c4.86-6.19,8.78-13.15,11.55-20.67c3.03-8.21,4.68-17.1,4.68-26.39c0-8.31-1.33-16.31-3.78-23.78L148.76,54.31z M128.97,94.96
		c-3.23,10.1-9.29,18.94-17.23,25.58c-9.6,8.03-21.97,12.86-35.45,12.86c-7.6,0-14.87-1.55-21.5-4.35c-5-2.11-9.62-4.95-13.74-8.36
		c-2.23,1.09-4.73,1.7-7.38,1.7c-9.29,0-16.83-7.53-16.83-16.83c0-5.21,2.37-9.86,6.08-12.95c-0.28-1.03-0.54-2.06-0.75-3.11
		c-0.78-3.72-1.19-7.54-1.19-11.43c0-13.48,4.84-25.85,12.86-35.45c7.57-9.06,17.98-15.65,29.88-18.42
		c0.44-2.68,1.73-5.07,3.56-6.91l0.23-0.21c2.29-2.18,5.38-3.52,8.78-3.52s6.71,1.43,9.01,3.73l0.21,0.23
		c1.72,1.8,2.92,4.11,3.35,6.68c10.21,2.37,19.35,7.59,26.54,14.78c6.27,6.25,11.04,14.02,13.73,22.69
		c8.07,1.24,14.25,8.21,14.25,16.63s-6.26,15.48-14.4,16.65L128.97,94.96z"/>
	<circle class="st0" cx="19.18" cy="16.53" r="15.55"/>
	<circle class="st0" cx="126.76" cy="78.1" r="10.65"/>
	<circle class="st0" cx="33.88" cy="105.37" r="10.65"/>
</g>
</svg>
